<svg xmlns="http://www.w3.org/2000/svg" width="35" height="38" viewBox="0 0 35 38" fill="none">
    <path d="M25.851 37.0392C27.5167 37.0392 28.867 35.6735 28.867 33.9889C28.867 32.3043 27.5167 30.9386 25.851 30.9386C24.1854 30.9386 22.8351 32.3043 22.8351 33.9889C22.8351 35.6735 24.1854 37.0392 25.851 37.0392Z" fill="#373640"/>
    <path d="M12.0638 37.0392C13.7295 37.0392 15.0798 35.6735 15.0798 33.9889C15.0798 32.3043 13.7295 30.9386 12.0638 30.9386C10.3981 30.9386 9.04785 32.3043 9.04785 33.9889C9.04785 35.6735 10.3981 37.0392 12.0638 37.0392Z" fill="#373640"/>
    <path d="M6.18702 4.68873L5.84234 8.95913C5.7734 9.77835 6.41106 10.4581 7.22106 10.4581H33.6064C34.3302 10.4581 34.9334 9.90036 34.9851 9.16829C35.2091 6.08314 32.8825 3.57319 29.8321 3.57319H8.65148C8.47914 2.80626 8.13446 2.07419 7.60021 1.46414C6.73851 0.540336 5.53212 0 4.29127 0H1.29255C0.585957 0 0 0.592627 0 1.30727C0 2.0219 0.585957 2.61453 1.29255 2.61453H4.29127C4.82553 2.61453 5.32532 2.84112 5.68723 3.22459C6.04915 3.62548 6.22149 4.14839 6.18702 4.68873Z" fill="#373640"/>
    <path d="M33.1929 13.0727H6.75585C6.03202 13.0727 5.44607 13.6304 5.37713 14.3451L4.75671 21.9272C4.51543 24.9078 6.82479 27.4526 9.77181 27.4526H28.9361C31.5212 27.4526 33.7961 25.3087 33.9857 22.6941L34.5544 14.5542C34.6234 13.7524 34.0029 13.0727 33.1929 13.0727Z" fill="#373640"/>
</svg>