<svg xmlns="http://www.w3.org/2000/svg" width="36" height="30" viewBox="0 0 36 30" fill="none">
    <path d="M36 21.285C36 26.745 32.094 30 25.542 30H23.4C22.41 30 21.6 29.325 21.6 28.5V19.845C21.6 19.44 21.996 19.095 22.482 19.095L25.65 19.05C25.902 19.035 26.118 18.885 26.172 18.675L26.802 15.81C26.856 15.54 26.604 15.285 26.262 15.285L22.428 15.33C21.924 15.33 21.528 15 21.51 14.595L21.438 10.92C21.438 10.68 21.672 10.47 21.978 10.47L26.298 10.41C26.604 10.41 26.838 10.215 26.838 9.96001L26.766 6.35999C26.766 6.10499 26.532 5.91 26.226 5.91L21.366 5.97002C18.378 6.01502 16.002 8.055 16.056 10.545L16.146 14.67C16.164 15.09 15.768 15.42 15.264 15.435L13.104 15.465C12.798 15.465 12.564 15.66 12.564 15.915L12.618 18.765C12.618 19.02 12.852 19.215 13.158 19.215L15.318 19.185C15.822 19.185 16.218 19.515 16.236 19.92L16.398 28.47C16.416 29.31 15.606 30 14.598 30H10.458C3.906 30 0 26.745 0 21.27V8.715C0 3.255 3.906 0 10.458 0H25.542C32.094 0 36 3.255 36 8.715V21.285Z" fill="#373640"/>
</svg>